<svg width="83" height="82" viewBox="0 0 83 82" fill="none" xmlns="http://www.w3.org/2000/svg">
<path d="M60.1968 0H22.2722C9.97081 0 0 9.91698 0 22.1479V59.8554C0 72.0863 9.97081 82 22.2722 82H60.1968C72.4982 82 82.4723 72.0863 82.4723 59.8554V22.1479C82.4723 9.91698 72.4982 0 60.1968 0ZM36.812 63.449L30.9296 70.3942C29.2804 72.3416 26.0775 71.7885 25.1854 69.4025C24.5369 67.6777 23.8918 65.9496 23.2466 64.2247C22.8186 63.0857 21.7883 62.2642 20.5638 62.0875C18.8751 61.842 17.1864 61.5998 15.4977 61.3544C12.9005 60.978 11.7089 57.9767 13.3745 56.0097L19.1911 49.1463C19.9252 48.279 21.0674 47.8502 22.2129 47.9975C25.3303 48.3968 28.7373 48.459 31.871 48.8387C33.1713 48.9958 34.2642 49.8795 34.6723 51.0937C35.6697 54.0655 36.3906 57.3581 37.4045 60.3103C37.7732 61.3904 37.5592 62.5752 36.8186 63.4458L36.812 63.449ZM52.494 45.2974L46.6083 52.2425C44.9592 54.1899 41.7562 53.6368 40.8642 51.2508C40.2157 49.526 39.5705 47.8012 38.9253 46.073C38.4974 44.9341 37.4671 44.1158 36.2425 43.9358C34.5538 43.6936 32.8651 43.4482 31.1765 43.2027C28.5792 42.8263 27.3876 39.8218 29.0533 37.8547L34.8698 30.9914C35.6039 30.1241 36.7462 29.6953 37.8917 29.8426C41.009 30.2419 44.416 30.3041 47.5498 30.6837C48.85 30.8408 49.9429 31.7212 50.3511 32.9388C51.3452 35.9106 52.0694 39.2032 53.08 42.1553C53.4487 43.2354 53.2347 44.4202 52.494 45.2941V45.2974ZM67.2215 27.7839L61.3358 34.7291C59.6866 36.6765 56.4837 36.1233 55.5916 33.7374C54.9464 32.0125 54.2979 30.2844 53.6527 28.5596C53.2281 27.4206 52.1978 26.6024 50.9699 26.4256C49.2813 26.1802 47.5893 25.9347 45.9039 25.6925C43.3067 25.3161 42.1151 22.3148 43.7807 20.3478L49.5973 13.4812C50.3313 12.6139 51.4736 12.1851 52.6224 12.3324C55.7397 12.7317 59.1434 12.7939 62.2805 13.1735C63.5808 13.3306 64.6736 14.2111 65.0818 15.4286C66.0759 18.4004 66.8001 21.693 67.8107 24.6452C68.1794 25.7252 67.9654 26.91 67.2248 27.7806L67.2215 27.7839Z" fill="#F7F9FC"/>
</svg>
